HIERARCHY
ROOT Hips
{
    OFFSET 0.000000 0.000000 0.000000
    CHANNELS 6 Xposition Yposition Zposition Zrotation Xrotation Yrotation
    JOINT Spine
    {
        OFFSET -0.000000 14.517291 0.000000
        CHANNELS 3 Zrotation Xrotation Yrotation
        JOINT Spine1
        {
            OFFSET -0.000000 37.558300 0.000000
            CHANNELS 3 Zrotation Xrotation Yrotation
            JOINT Neck
            {
                OFFSET -0.000000 37.404057 3.400369
                CHANNELS 3 Zrotation Xrotation Yrotation
                JOINT Head
                {
                    OFFSET -0.000000 24.785618 -3.540803
                    CHANNELS 3 Zrotation Xrotation Yrotation
                    End Site
                    {
                        OFFSET -0.000000 35.408028 0.000000
                    }
                }
            }
            JOINT LeftShoulder
            {
                OFFSET 6.992933 33.973492 -0.192664
                CHANNELS 3 Zrotation Xrotation Yrotation
                JOINT LeftArm
                {
                    OFFSET 21.527611 0.000000 0.000000
                    CHANNELS 3 Zrotation Xrotation Yrotation
                    JOINT LeftForeArm
                    {
                        OFFSET 56.353916 0.000000 0.000000
                        CHANNELS 3 Zrotation Xrotation Yrotation
                        JOINT LeftHand
                        {
                            OFFSET 47.774071 0.000000 0.000000
                            CHANNELS 3 Zrotation Xrotation Yrotation
                            End Site
                            {
                                OFFSET 26.556021 0.000000 0.000000
                            }
                        }
                    }
                }
            }
            JOINT RightShoulder
            {
                OFFSET -7.065357 33.973492 -0.192664
                CHANNELS 3 Zrotation Xrotation Yrotation
                JOINT RightArm
                {
                    OFFSET -21.527611 0.000000 0.000000
                    CHANNELS 3 Zrotation Xrotation Yrotation
                    JOINT RightForeArm
                    {
                        OFFSET -56.353916 0.000000 0.000000
                        CHANNELS 3 Zrotation Xrotation Yrotation
                        JOINT RightHand
                        {
                            OFFSET -47.774071 0.000000 0.000000
                            CHANNELS 3 Zrotation Xrotation Yrotation
                            End Site
                            {
                                OFFSET -26.556021 0.000000 0.000000
                            }
                        }
                    }
                }
            }
        }
    }
    JOINT LeftUpLeg
    {
        OFFSET 17.704014 0.000000 0.000000
        CHANNELS 3 Zrotation Xrotation Yrotation
        JOINT LeftLeg
        {
            OFFSET -0.000000 -81.181816 0.000000
            CHANNELS 3 Zrotation Xrotation Yrotation
            JOINT LeftFoot
            {
                OFFSET -0.000000 -62.821102 0.000000
                CHANNELS 3 Zrotation Xrotation Yrotation
                JOINT LeftToeBase
                {
                    OFFSET -0.000000 -11.507608 26.556021
                    CHANNELS 3 Zrotation Xrotation Yrotation
                    End Site
                    {
                        OFFSET -0.000000 0.000000 7.081605
                    }
                }
            }
        }
    }
    JOINT RightUpLeg
    {
        OFFSET -17.704014 0.000000 0.000000
        CHANNELS 3 Zrotation Xrotation Yrotation
        JOINT RightLeg
        {
            OFFSET -0.000000 -81.181816 0.000000
            CHANNELS 3 Zrotation Xrotation Yrotation
            JOINT RightFoot
            {
                OFFSET -0.000000 -62.821102 0.000000
                CHANNELS 3 Zrotation Xrotation Yrotation
                JOINT RightToeBase
                {
                    OFFSET -0.000000 -11.507608 26.556021
                    CHANNELS 3 Zrotation Xrotation Yrotation
                    End Site
                    {
                        OFFSET -0.000000 0.000000 7.081605
                    }
                }
            }
        }
    }
}
MOTION
Frames:    10
Frame Time:    0.008333
-9.200008    158.043839    -10.700324    -1.230465    7.894709    -5.778191    0.403449    0.924019    7.874988    0.261349    -1.049197    2.628741    2.759087    -0.624667    -4.339438    6.232534    -5.895440    -3.740098    0.618547    5.362430    -7.606110    -41.929028    18.082062    -43.893539    1.542741    -30.994215    -125.621719    -6.782704    -27.903608    -9.224424    -0.862209    11.591372    1.516339    37.514004    10.941293    55.947231    -22.751055    -26.249548    67.179146    12.290617    -8.230028    32.159550    4.735468    -30.367044    -13.973158    -15.509847    33.749817    -18.166664    7.033497    -10.455297    41.593037    0.000000    0.000000    0.000000    -10.081318    2.682398    -26.993925    -0.171344    19.437054    -11.927429    18.946907    -7.508733    -6.825325    0.000000    0.000000    0.000000    
-8.955465    158.143524    -10.633196    -1.193867    7.919897    -5.959538    0.424805    0.892882    7.917942    0.225063    -1.049787    2.642727    2.779151    -0.617112    -4.284551    6.189735    -5.883801    -3.694691    0.578484    5.378971    -7.547749    -42.133610    18.151747    -43.695602    1.433657    -30.707876    -125.767342    -6.671319    -27.804283    -9.082370    -0.889184    11.632883    1.510436    37.462635    10.915311    56.035740    -22.626394    -26.145638    67.250710    12.266288    -8.183102    32.205536    4.653663    -30.269163    -13.987978    -15.453080    33.593956    -18.151409    7.086946    -10.323086    41.596951    0.000000    0.000000    0.000000    -9.807368    2.722006    -26.850435    -0.255560    19.620838    -11.810455    19.157967    -7.670293    -6.236168    0.000000    0.000000    0.000000    
-8.732806    158.240143    -10.574062    -1.184219    7.928018    -6.134040    0.416144    0.918744    7.990065    0.290306    -1.096714    2.667503    2.707903    -0.634372    -4.247266    6.198162    -5.870757    -3.644327    0.476828    5.433632    -7.518506    -42.303493    18.217670    -43.527302    1.344339    -30.462221    -125.891487    -6.626981    -27.707481    -9.001022    -0.969754    11.659849    1.453150    37.501175    10.844207    56.094246    -22.421024    -25.945097    67.448883    12.189497    -8.079348    32.126854    4.611231    -30.158522    -14.003710    -15.416971    33.442657    -18.144459    7.115367    -10.237971    41.641586    0.000000    0.000000    0.000000    -9.518905    2.766132    -26.575342    -0.301762    19.865870    -11.637147    19.305597    -7.890539    -5.855234    0.000000    0.000000    0.000000    
-8.523536    158.327652    -10.514809    -1.177351    7.932228    -6.302680    0.441192    0.905928    8.023643    0.269781    -1.069430    2.678479    2.721654    -0.647673    -4.190069    6.189154    -5.896907    -3.587569    0.460867    5.449528    -7.449792    -42.481873    18.312359    -43.377605    1.287193    -30.300041    -126.009903    -6.593218    -27.642382    -8.891022    -0.998784    11.645931    1.465511    37.492065    10.827792    56.122746    -22.302380    -25.859982    67.593201    12.119554    -8.053722    32.070328    4.579878    -30.048847    -14.014050    -15.388291    33.298656    -18.121708    7.151708    -10.144167    41.638855    0.000000    0.000000    0.000000    -9.239267    2.832279    -26.252605    -0.298435    20.056650    -11.549830    19.280886    -8.096456    -5.472503    0.000000    0.000000    0.000000    
-8.325684    158.402008    -10.479155    -1.174239    7.963015    -6.439297    0.469071    0.880849    8.038376    0.243756    -1.068011    2.683177    2.779594    -0.641598    -4.129692    6.133399    -5.935339    -3.542251    0.449782    5.468333    -7.405777    -42.663048    18.355686    -43.229012    1.168305    -30.048910    -126.125000    -6.509454    -27.597427    -8.794027    -1.031151    11.659567    1.496024    37.492287    10.770549    56.134476    -22.154078    -25.778717    67.761635    12.091623    -8.029167    32.060966    4.549577    -29.985731    -14.032763    -15.372213    33.153507    -18.066124    7.174683    -10.058427    41.623474    0.000000    0.000000    0.000000    -8.969945    2.896239    -25.869654    -0.209221    20.243612    -11.478148    19.337450    -8.339880    -5.206692    0.000000    0.000000    0.000000    
-8.123939    158.474136    -10.441648    -1.164593    7.989696    -6.578066    0.489389    0.819682    8.049630    0.252573    -1.009747    2.686826    2.765474    -0.626180    -4.082521    6.129617    -5.996267    -3.488109    0.406987    5.463405    -7.365516    -42.788284    18.423927    -43.096127    1.072117    -29.858772    -126.197472    -6.366271    -27.581644    -8.711828    -1.079134    11.608907    1.537762    37.429077    10.800834    56.125614    -22.088928    -25.786730    67.871719    12.095232    -8.051740    32.057167    4.517287    -29.896749    -14.137084    -15.495705    32.876369    -17.677635    7.263588    -9.894180    41.536728    0.000000    0.000000    0.000000    -8.729751    2.938026    -25.542253    -0.166888    20.500340    -11.183533    19.509542    -8.624658    -5.170323    0.000000    0.000000    0.000000    
-7.922471    158.541428    -10.411094    -1.133764    8.014901    -6.704649    0.494456    0.781327    8.059749    0.239966    -0.985124    2.689996    2.748890    -0.618358    -4.043711    6.141136    -6.026671    -3.441118    0.377519    5.484225    -7.320737    -42.892189    18.477844    -43.006641    0.998835    -29.705303    -126.255890    -6.283909    -27.558908    -8.657060    -1.114199    11.610614    1.544511    37.398655    10.761640    56.149326    -21.971439    -25.735300    68.004463    12.149252    -8.015447    32.137432    4.456321    -29.829365    -14.136456    -15.454839    32.745056    -17.673054    7.251881    -9.878623    41.516056    0.000000    0.000000    0.000000    -8.543773    3.002917    -25.186348    -0.011959    20.742325    -10.798218    19.393745    -8.981555    -5.317757    0.000000    0.000000    0.000000    
-7.741907    158.602005    -10.389130    -1.102873    8.033261    -6.810478    0.507815    0.756407    8.058370    0.182835    -0.961650    2.688989    2.782868    -0.626462    -3.998468    6.142755    -6.044655    -3.398185    0.385237    5.477165    -7.306629    -42.955902    18.558754    -42.920208    0.983756    -29.651161    -126.282181    -6.156553    -27.545736    -8.484366    -1.124237    11.609266    1.550516    37.392212    10.713037    56.168381    -21.853146    -25.677780    68.148849    12.181739    -7.983772    32.150528    4.392416    -29.765265    -14.108624    -15.378819    32.640633    -17.693213    7.202032    -9.911245    41.456165    0.000000    0.000000    0.000000    -8.366616    3.099946    -24.882435    0.138444    20.951345    -10.644644    19.500408    -9.131600    -5.232201    0.000000    0.000000    0.000000    
-7.572679    158.657318    -10.370532    -1.062786    8.052494    -6.909943    0.464743    0.703195    8.057431    0.214558    -0.933392    2.688707    2.800112    -0.607322    -3.952180    6.119988    -6.056745    -3.355943    0.350492    5.501588    -7.331358    -42.987801    18.623571    -42.851604    0.979447    -29.659008    -126.283585    -6.137177    -27.564196    -8.451520    -1.170638    11.610958    1.575241    37.379261    10.671205    56.164173    -21.777287    -25.640749    68.252586    12.196198    -7.963935    32.143471    4.322670    -29.709553    -14.066319    -15.291453    32.548820    -17.733734    7.118140    -9.985379    41.376045    0.000000    0.000000    0.000000    -8.209647    3.197962    -24.706554    0.211345    21.140747    -10.441132    19.734921    -9.347928    -5.063002    0.000000    0.000000    0.000000    
-7.403783    158.703964    -10.356922    -1.015526    8.067008    -7.011117    0.452192    0.667176    8.058667    0.183600    -0.919943    2.688740    2.840739    -0.589483    -3.917087    6.086501    -6.047778    -3.332194    0.343067    5.520164    -7.348852    -43.019417    18.637518    -42.797951    0.964392    -29.612623    -126.271523    -6.126210    -27.545252    -8.434271    -1.179971    11.588783    1.609730    37.356289    10.640313    56.131405    -21.658180    -25.612770    68.391800    12.196365    -7.984038    32.093918    4.251490    -29.654074    -13.996346    -15.205916    32.474567    -17.763977    7.015292    -10.124978    41.271248    0.000000    0.000000    0.000000    -8.062347    3.313455    -24.580496    0.271617    21.277191    -10.282280    19.868990    -9.532660    -4.904853    0.000000    0.000000    0.000000    
